<svg xmlns="http://www.w3.org/2000/svg" fill="none" viewBox="0 0 24 24" height="24" width="24">
<g clip-path="url(#clip0_584_18734)">
<path fill="#805333" d="M0.897746 5.06687C1.06841 3.55221 0.745746 1.31487 1.89775 0.722874C1.90841 0.717541 1.91908 0.706874 1.93508 0.706874C3.09241 0.125541 5.48975 1.30687 6.81775 2.06954C8.11908 2.81621 9.35108 4.12821 10.2151 5.82954C11.0791 7.53087 11.4044 9.30154 11.2444 10.7895C11.0791 12.3095 10.3964 13.5415 9.24441 14.1389C9.23375 14.1442 9.22308 14.1549 9.20708 14.1602C8.04975 14.7362 6.65241 14.5602 5.32441 13.7922C4.02308 13.0455 2.79108 11.7335 1.92708 10.0322C1.06308 8.33087 0.737746 6.56021 0.897746 5.06687Z"></path>
<path fill="#5E3D25" d="M6.03206 13.1379C3.23206 11.5219 1.86987 8.96076 1.61073 4.41791C1.53447 3.08121 1.05606 1.6455 1.61073 0.989502C0.60806 1.62417 0.828883 4.25325 0.84201 5.87506C0.872914 9.69303 2.48006 12.1779 5.28006 13.7939C6.60273 14.5566 8.00006 14.7379 9.16273 14.1619C9.17339 14.1566 9.18939 14.1512 9.20006 14.1406C9.58406 13.9432 9.91473 13.6712 10.1974 13.3459C10.1174 13.3939 10.0374 13.4419 9.95206 13.4846C9.94139 13.4899 9.93073 13.5006 9.91473 13.5059C8.75739 14.0819 7.36006 13.9006 6.03206 13.1379Z"></path>
<path fill="#805333" d="M19.9571 3.60503C21.3417 3.39465 22.8025 3.41591 23.5999 4.29168C23.6097 4.30147 23.6195 4.31125 23.6244 4.32104C24.4121 5.21149 23.7762 7.08882 23.4142 8.44406C23.0619 9.77485 22.1911 11.1789 20.8897 12.3482C19.5883 13.5175 18.0961 14.2269 16.7409 14.4373C15.3564 14.6477 14.099 14.3395 13.3016 13.4588C13.2918 13.449 13.282 13.4392 13.2771 13.4294C12.4894 12.539 12.3182 11.2573 12.6802 9.902C13.0325 8.57122 13.9033 7.16718 15.2047 5.99785C16.5061 4.83342 18.597 3.81541 19.9571 3.60503Z"></path>
<path fill="#5E3D25" d="M13.4386 10.407C14.2067 7.54003 17.1813 4.56042 20.1167 4.11032C21.0414 3.96844 22.6252 3.89842 23.4022 4.11032C22.5999 3.37156 21.4034 3.36714 20.1167 3.56283C17.1813 4.01294 13.4648 6.71747 12.7016 9.58442C12.3396 10.9396 12.4894 12.5352 13.2771 13.4256C13.2869 13.4354 13.2918 13.4452 13.3016 13.455C13.5707 13.7485 13.8887 13.9784 14.2458 14.1497C14.1822 14.091 14.1235 14.0323 14.0648 13.9687C14.055 13.9589 14.0452 13.9491 14.0403 13.9393C13.2527 13.044 13.0814 11.7622 13.4386 10.407Z"></path>
<path fill="#805333" d="M12.8957 16.8823C14.0344 17.7203 15.6341 18.8344 15.5749 20.0274V20.0668C15.501 21.2598 13.7879 22.295 12.5654 23.0048C11.3675 23.6999 9.74563 24.0795 7.98576 23.9858C6.22588 23.8922 4.65826 23.3351 3.53924 22.5168C2.4005 21.6788 0.800837 20.5647 0.859993 19.3717C0.859993 19.3569 0.859993 19.3471 0.859993 19.3323C0.933937 18.1393 2.64698 17.1041 3.86952 16.3942C5.06742 15.6991 6.68927 15.3196 8.44914 15.4132C10.209 15.5118 11.7816 16.0639 12.8957 16.8823Z"></path>
<path fill="#5E3D25" d="M4.35464 17.3022C6.94269 15.8036 10.9653 16.0205 13.3758 17.7902C14.135 18.3472 15.2239 18.9669 15.4901 19.7112C15.4457 18.6119 14.2533 17.662 13.1984 16.8831C10.7878 15.1134 6.73171 14.7323 4.14859 16.2309C2.92604 16.9408 0.951472 17.9803 0.877528 19.1733V19.2127C0.857809 19.612 0.921894 20.0014 1.05499 20.3761C1.05006 20.2873 1.05006 20.2035 1.05499 20.1148C1.05499 20.1 1.05499 20.0902 1.05499 20.0754C1.12894 18.8824 3.1321 18.012 4.35464 17.3022Z"></path>
</g>
<defs>
<clipPath id="clip0_584_18734">
<rect fill="white" height="24" width="24"></rect>
</clipPath>
</defs>
</svg>
