<svg width="110" height="42" viewBox="0 0 110 42" fill="none" xmlns="http://www.w3.org/2000/svg">
<path d="M25.5362 41.996C37.133 41.996 46.5341 32.5949 46.5341 20.998C46.5341 9.40121 37.133 0.00012207 25.5362 0.00012207C13.9394 0.00012207 4.53821 9.40121 4.53821 20.998C4.53821 32.5949 13.9394 41.996 25.5362 41.996Z" fill="#FFCB05"/>
<path d="M0 24.3746H6.19337L5.8371 24.9308H0V24.3746Z" fill="#D40511"/>
<path d="M51.0765 24.9308H43.4953L43.8863 24.3746H51.1126V24.9308H51.0765Z" fill="#D40511"/>
<path d="M0 23.3417H6.90463L6.51367 23.8978H0V23.3417Z" fill="#D40511"/>
<path d="M0 22.3104H7.61734L7.22493 22.8665H0V22.3104Z" fill="#D40511"/>
<path d="M51.0765 23.8978H44.2079L44.5988 23.3417H51.1125V23.8978H51.0765Z" fill="#D40511"/>
<path d="M45.2727 22.3104H51.0751V22.8665H44.8817L45.2727 22.3104Z" fill="#D40511"/>
<path d="M6.69122 24.9311L9.96608 20.0449C9.96608 20.0449 13.5959 20.0449 14.023 20.0449C14.486 20.0449 14.486 20.2435 14.2365 20.5612C14.0229 20.8792 13.6319 21.4749 13.4184 21.7929C13.3116 21.9914 13.0981 22.2695 13.7748 22.2695C14.5221 22.2695 19.2195 22.2695 19.2195 22.2695C18.7924 22.9845 17.2978 24.9708 14.6635 24.9708C12.5283 24.9311 6.69122 24.9311 6.69122 24.9311Z" fill="#D40511"/>
<path d="M25.4488 22.3104L23.67 24.972H19.0073L20.7861 22.3104H25.4488Z" fill="#D40511"/>
<path d="M32.2495 22.3104L30.4693 24.972H25.7719L27.5508 22.3104H32.2495Z" fill="#D40511"/>
<path d="M33.7802 22.3104C33.7802 22.3104 33.4239 22.8269 33.2811 23.0652C32.6766 23.9391 33.2103 24.972 35.132 24.972C37.3393 24.972 42.6786 24.972 42.6786 24.972L44.4575 22.3104H33.7802Z" fill="#D40511"/>
<path d="M9.00244 17.0262L7.36505 19.4495C7.36505 19.4495 15.8003 19.4495 16.2634 19.4495C16.7265 19.4495 16.7266 19.648 16.477 19.9658C16.2635 20.2837 15.8725 20.8796 15.659 21.1974C15.5522 21.3563 15.3387 21.6741 16.0153 21.6741C16.7626 21.6741 19.6451 21.6741 19.6451 21.6741C19.6451 21.6741 20.2496 20.8 20.7127 20.0454C21.3893 19.0521 20.7834 16.9864 18.3987 16.9864C16.2635 17.0262 9.00244 17.0262 9.00244 17.0262Z" fill="#D40511"/>
<path d="M32.635 21.6747H21.1729L24.305 17.0268H29.0038L27.2235 19.6884H29.3241L31.1043 17.0268H35.8017L32.635 21.6747Z" fill="#D40511"/>
<path d="M42.2822 17.0268L39.1487 21.6747H34.1657L37.2977 17.0268H42.2822Z" fill="#D40511"/>
<path d="M109.748 20.9975C109.748 23.4905 109.315 25.8804 108.518 28.0982C106.587 33.473 102.53 37.8299 97.3553 40.1607C94.7293 41.3409 91.8136 41.9999 88.7454 41.9999C85.6771 41.9999 82.7654 41.3409 80.1394 40.1607C74.9665 37.8348 70.9097 33.473 68.977 28.0982C68.1811 25.8804 67.7485 23.4905 67.7485 20.9975C67.7485 18.5043 68.1811 16.1145 68.977 13.8967C70.9097 8.52185 74.9665 4.16498 80.1394 1.83902C82.7654 0.658854 85.6812 0 88.7454 0C91.8095 0 94.7293 0.654001 97.3553 1.83417C102.53 4.16013 106.587 8.52185 108.518 13.8917C109.315 16.1095 109.748 18.5043 109.748 20.9975Z" fill="#002DA0"/>
<path d="M88.755 6.10364L89.2473 7.53947L90.7669 7.56415L89.5523 8.47881L89.9946 9.92949L88.755 9.05406L87.5114 9.92949L87.9592 8.47881L86.7447 7.56415L88.2642 7.53947L88.755 6.10364Z" fill="#FDCC00"/>
<path d="M76.0715 18.9265L76.5637 20.3625L78.0777 20.387L76.8687 21.2968L77.311 22.7524L76.0715 21.8771L74.8278 22.7524L75.2743 21.2968L74.0597 20.387L75.5751 20.3625L76.0715 18.9265Z" fill="#FDCC00"/>
<path d="M77.7146 12.464L78.2067 13.895L79.7263 13.9245L78.5117 14.8342L78.9596 16.2848L77.7146 15.4144L76.4709 16.2848L76.9187 14.8342L75.7042 13.9245L77.2238 13.895L77.7146 12.464Z" fill="#FDCC00"/>
<path d="M82.3785 7.88116L82.8693 9.317L84.3889 9.34168L83.1744 10.2513L83.6222 11.702L82.3785 10.8316L81.1335 11.702L81.5814 10.2513L80.3668 9.34168L81.8864 9.317L82.3785 7.88116Z" fill="#FDCC00"/>
<path d="M99.7692 12.464L99.2728 13.895L97.7574 13.9245L98.9678 14.8342L98.5241 16.2848L99.7692 15.4144L101.009 16.2848L100.565 14.8342L101.775 13.9245L100.26 13.895L99.7692 12.464Z" fill="#FDCC00"/>
<path d="M77.7146 25.27L78.2067 26.7009L79.7263 26.7305L78.5117 27.6403L78.9596 29.0908L77.7146 28.2205L76.4709 29.0908L76.9187 27.6403L75.7042 26.7305L77.2238 26.7009L77.7146 25.27Z" fill="#FDCC00"/>
<path d="M99.7692 25.27L99.2728 26.7009L97.7574 26.7305L98.9678 27.6403L98.5241 29.0908L99.7692 28.2205L101.009 29.0908L100.565 27.6403L101.775 26.7305L100.26 26.7009L99.7692 25.27Z" fill="#FDCC00"/>
<path d="M95.1037 7.88116L94.6115 9.317L93.0975 9.34168L94.3065 10.2513L93.8642 11.702L95.1037 10.8316L96.3474 11.702L95.9051 10.2513L97.1141 9.34168L95.6001 9.317L95.1037 7.88116Z" fill="#FDCC00"/>
<path d="M82.3785 29.8477L82.8693 31.2836L84.3889 31.3082L83.1744 32.2229L83.6222 33.6734L82.3785 32.8031L81.1335 33.6734L81.5814 32.2229L80.3668 31.3082L81.8864 31.2836L82.3785 29.8477Z" fill="#FDCC00"/>
<path d="M95.1037 29.8477L94.6115 31.2836L93.0975 31.3082L94.3065 32.2229L93.8642 33.6734L95.1037 32.8031L96.3474 33.6734L95.9051 32.2229L97.1141 31.3082L95.6001 31.2836L95.1037 29.8477Z" fill="#FDCC00"/>
<path d="M101.523 18.9265L102.015 20.3625L103.529 20.387L102.32 21.2968L102.763 22.7524L101.523 21.8771L100.279 22.7524L100.722 21.2968L99.5128 20.387L101.027 20.3625L101.523 18.9265Z" fill="#FDCC00"/>
<path d="M88.755 31.6084L89.2473 33.0442L90.7669 33.0689L89.5523 33.9836L89.9946 35.4341L88.755 34.5588L87.5114 35.4341L87.9592 33.9836L86.7447 33.0689L88.2642 33.0442L88.755 31.6084Z" fill="#FDCC00"/>
</svg>
