<svg xmlns="http://www.w3.org/2000/svg" fill="none" viewBox="0 0 24 24" height="24" width="24">
<g clip-path="url(#clip0_591_20761)">
<path fill="#51B756" d="M3.27016 21.9202C2.82199 19.1671 3.104 15.1976 0.498047 10.7799C0.498047 10.7799 3.71832 12.4445 5.44696 21.9202"></path>
<path fill="#51B756" d="M20.8769 21.152C20.8769 18.8471 20.8129 13.213 23.5019 12.0605C23.5019 12.0605 20.6208 11.1186 19.7245 18.591C18.8281 26.0635 18.8281 22.3685 18.8281 22.3685"></path>
<path fill="#51B756" d="M14.8652 20.2484C15.3765 15.9456 14.9238 4.93555 13.7165 0C12.5093 4.93555 12.0565 15.9456 12.5678 20.2484"></path>
<path fill="#51B756" d="M18.3657 19.8394C19.0102 16.2103 18.4395 6.92406 16.9176 2.76123C15.3957 6.92402 14.825 16.2103 15.4695 19.8394"></path>
<path fill="#7CD683" d="M16.4995 20.2484C17.1933 17.4668 16.5789 10.3492 14.9408 7.15857C13.3026 10.3492 12.6883 17.4668 13.3821 20.2484"></path>
<path fill="#7CD683" d="M20.4859 20.2484C21.3531 17.0286 20.5852 8.78947 18.5375 5.09607C16.4898 8.78947 15.722 17.0286 16.5892 20.2484"></path>
<path fill="#51B756" d="M17.584 20.2485H16.5893C15.722 17.0284 16.4897 8.78969 18.5377 5.09619C17.5354 8.78919 17.1594 17.0284 17.584 20.2485Z"></path>
<path fill="#51B756" d="M14.0676 20.2484H13.3822C12.6883 17.4668 13.3024 10.3492 14.941 7.15845C14.0231 10.3492 13.6789 17.4668 14.0676 20.2484Z"></path>
<path fill="#7CD683" d="M13.0032 20.2484C14.0669 15.9456 13.1251 4.93555 10.6134 0C8.1018 4.93555 7.15992 15.9456 8.22359 20.2484"></path>
<path fill="#51B756" d="M9.2649 20.2484H8.22369C7.15978 15.9454 8.10195 4.9355 10.6134 0C9.19617 4.9355 8.66448 15.9454 9.2649 20.2484Z"></path>
<path fill="#7CD683" d="M8.30327 20.2485C9.17046 16.7715 8.40261 7.87443 6.35492 3.88611C4.30723 7.87443 3.53938 16.7714 4.40657 20.2485"></path>
<path fill="#51B756" d="M6.40723 21.0879C6.40723 18.2068 6.72736 11.1001 6.72736 11.1001C6.72736 11.1001 7.49565 17.8227 7.49565 21.216"></path>
<path fill="#51B756" d="M18.124 21.1519C18.124 17.9507 19.2124 12.7007 19.2124 12.7007V21.1519"></path>
<path fill="#51B756" d="M5.36648 20.2485H4.40667C3.53933 16.7715 4.30709 7.87414 6.35512 3.88611C5.31646 7.87414 4.92676 16.7715 5.36648 20.2485Z"></path>
<path fill="#B25640" d="M23.1722 22.9634V24.0001H1.63379V22.9634C1.63379 21.4269 2.87968 20.181 4.41671 20.181H20.3894C21.9263 20.181 23.1722 21.4269 23.1722 22.9634Z"></path>
<path fill="#CE765B" d="M23.1723 22.9634V24.0001H4.25195V22.9634C4.25195 21.4269 5.49784 20.181 7.03487 20.181H20.3894C21.9264 20.181 23.1723 21.4269 23.1723 22.9634Z"></path>
<path fill="#51B756" d="M10.6651 2.23267C10.5051 4.05735 9.83283 13.2769 11.1773 19.5192C11.1773 19.5192 11.3374 6.60258 10.6651 2.23267Z"></path>
</g>
<defs>
<clipPath id="clip0_591_20761">
<rect fill="white" height="24" width="24"></rect>
</clipPath>
</defs>
</svg>
