<svg height="100px" width="100px" viewBox="0 0 64 64" xmlns="http://www.w3.org/2000/svg">
  <!-- original icon -->
  <path d="M 32.076172 5.3320312 C 29.42752 5.3007227 26.766953 5.6771875 24.220703 6.4296875 C 21.580754 7.2370945 19.084211 8.4593665 16.804688 10.019531 L 13.984375 6.1386719 L 8.1699219 20.251953 L 23.388672 19.082031 L 20.320312 14.859375 C 22.04404 13.651086 23.93975 12.681258 25.949219 12.029297 C 28.199219 11.319297 30.569453 10.990312 32.939453 11.070312 C 37.689453 11.240312 42.369687 13.079531 45.929688 16.269531 C 49.519688 19.429531 51.970937 23.880859 52.710938 28.630859 C 53.460938 33.380859 52.519062 38.420313 50.039062 42.570312 C 47.589063 46.740313 43.619062 50.010156 39.039062 51.660156 C 36.759062 52.490156 34.330625 52.909922 31.890625 52.919922 C 29.460625 52.909922 26.999219 52.509453 24.699219 51.689453 C 20.089219 50.069453 16.090547 46.770781 13.560547 42.550781 C 11.670547 39.410781 10.629297 35.779375 10.529297 32.109375 L 6.4804688 32.419922 C 6.5004687 33.769922 6.640625 35.130938 6.890625 36.460938 C 7.420625 39.350938 8.4496875 42.139453 9.9296875 44.689453 C 12.879688 49.779453 17.629453 53.819375 23.189453 55.859375 C 25.959453 56.889375 28.899375 57.420703 31.859375 57.470703 C 34.819375 57.500703 37.789609 57.020547 40.599609 56.060547 C 46.209609 54.110547 51.120938 50.190078 54.210938 45.080078 C 57.340937 39.990078 58.599063 33.820859 57.789062 27.880859 C 56.959062 21.940859 54.020313 16.319766 49.570312 12.259766 C 45.160313 8.1497656 39.240938 5.6891406 33.210938 5.3691406 C 32.833438 5.3478906 32.454551 5.3365039 32.076172 5.3320312 z"/>
  
  <!-- new number -->
  <text x="32" y="38" font-size="18" text-anchor="middle" font-weight="bold" font-family="Arial">
    60
  </text>
</svg>