<svg height="100px" width="100px" viewBox="0 0 64 64" xmlns="http://www.w3.org/2000/svg"><path d="M32,56c-0.293,0-0.585-0.064-0.856-0.192C30.321,55.418,12,46.112,12,32.75V15	c0-1.008,0.751-1.859,1.752-1.984c0.116-0.015,10.747-1.501,17.354-4.805c0.563-0.281,1.227-0.281,1.789,0	c6.606,3.304,17.237,4.79,17.354,4.805C51.249,13.141,52,13.992,52,15v17.75c0,13.362-18.321,22.668-19.144,23.058	C32.585,55.936,32.293,56,32,56z M16,16.735V32.75c0,9.467,12.437,17.14,15.999,19.008C35.561,49.886,48,42.197,48,32.75V16.735	c-3.479-0.536-10.36-1.956-16-4.52C26.36,14.779,19.479,16.199,16,16.735z"></path></svg>