<svg height="100px" width="100px" viewBox="0 0 64 64" xmlns="http://www.w3.org/2000/svg"><path d="M 11.861328 12.005859 C 11.692156 12.017516 11.523625 12.049719 11.359375 12.105469 C 10.699375 12.328469 10.204781 12.878641 10.050781 13.556641 C 7.0857812 26.600641 10.769859 34.732813 14.380859 39.257812 C 19.322859 45.449813 27.385 49 36.5 49 C 41.098642 49 45.260683 47.105908 48.255859 44.060547 C 49.692933 47.160504 49.948553 50.183592 50.101562 50.835938 C 50.480562 52.450937 52.097891 53.453219 53.712891 53.074219 C 55.327891 52.695219 56.330172 51.077891 55.951172 49.462891 C 55.13367 45.981791 53.778428 42.440062 51.449219 39.439453 C 52.434321 37.326466 53 34.980908 53 32.5 C 53 23.402 45.598 16 36.5 16 C 33.644 16 31.175047 16.250656 28.998047 16.472656 C 22.932047 17.087656 19.27325 17.458844 13.28125 12.464844 C 12.88075 12.131094 12.368844 11.970891 11.861328 12.005859 z M 13.367188 17.519531 C 19.338188 21.469531 24.051391 20.995172 29.400391 20.451172 C 31.586391 20.229172 33.846 20 36.5 20 C 43.393 20 49 25.607 49 32.5 C 49 33.84009 48.782724 35.128717 48.390625 36.339844 C 46.593067 34.90814 44.405848 33.703084 41.667969 32.771484 C 38.192969 31.587484 34.723953 31.099172 31.501953 30.326172 C 29.897953 29.934172 28.355719 29.460422 27.011719 28.732422 C 24.791719 27.526422 23.990344 25.744125 23.902344 25.578125 C 23.671344 25.132125 23.138203 24.919563 22.658203 25.101562 C 22.141203 25.297562 21.882125 25.875578 22.078125 26.392578 C 22.760125 28.189578 24.099641 29.791609 25.681641 30.849609 C 27.263641 31.918609 28.974484 32.614125 30.646484 33.203125 C 33.997484 34.351125 37.292078 35.161141 40.205078 36.494141 C 42.498423 37.516371 44.481999 38.879089 46.011719 40.589844 C 43.717217 43.283566 40.307837 45 36.5 45 C 28.608 45 21.685859 41.996719 17.505859 36.761719 C 13.616859 31.888719 12.206188 25.282531 13.367188 17.519531 z"></path></svg>