<svg height="100px" width="100px" viewBox="0 0 64 64" xmlns="http://www.w3.org/2000/svg"><path d="M 32.076172 5.3320312 C 29.42752 5.3007227 26.766953 5.6771875 24.220703 6.4296875 C 21.580754 7.2370945 19.084211 8.4593665 16.804688 10.019531 L 13.984375 6.1386719 L 8.1699219 20.251953 L 23.388672 19.082031 L 20.320312 14.859375 C 22.04404 13.651086 23.93975 12.681258 25.949219 12.029297 C 28.199219 11.319297 30.569453 10.990312 32.939453 11.070312 C 37.689453 11.240312 42.369687 13.079531 45.929688 16.269531 C 49.519688 19.429531 51.970937 23.880859 52.710938 28.630859 C 53.460938 33.380859 52.519062 38.420313 50.039062 42.570312 C 47.589063 46.740313 43.619062 50.010156 39.039062 51.660156 C 36.759062 52.490156 34.330625 52.909922 31.890625 52.919922 C 29.460625 52.909922 26.999219 52.509453 24.699219 51.689453 C 20.089219 50.069453 16.090547 46.770781 13.560547 42.550781 C 11.670547 39.410781 10.629297 35.779375 10.529297 32.109375 L 6.4804688 32.419922 C 6.5004687 33.769922 6.640625 35.130938 6.890625 36.460938 C 7.420625 39.350938 8.4496875 42.139453 9.9296875 44.689453 C 12.879688 49.779453 17.629453 53.819375 23.189453 55.859375 C 25.959453 56.889375 28.899375 57.420703 31.859375 57.470703 C 34.819375 57.500703 37.789609 57.020547 40.599609 56.060547 C 46.209609 54.110547 51.120938 50.190078 54.210938 45.080078 C 57.340937 39.990078 58.599063 33.820859 57.789062 27.880859 C 56.959062 21.940859 54.020313 16.319766 49.570312 12.259766 C 45.160313 8.1497656 39.240938 5.6891406 33.210938 5.3691406 C 32.833438 5.3478906 32.454551 5.3365039 32.076172 5.3320312 z M 23.548828 22.699219 C 21.216828 22.699219 19.704812 23.837187 18.882812 26.117188 L 21.773438 27.283203 C 22.012438 26.461203 22.542094 26.064453 23.496094 26.064453 C 24.636094 26.064453 25.324219 26.808531 25.324219 27.894531 C 25.324219 29.298531 24.583359 30.066406 23.443359 30.066406 L 22.011719 30.066406 L 22.011719 33.433594 L 23.443359 33.433594 C 25.085359 33.433594 26.146484 34.015188 26.146484 36.242188 C 26.146484 37.859188 25.138219 38.867188 23.574219 38.867188 C 22.381219 38.867187 21.534516 38.124375 20.978516 36.984375 L 18.087891 39.052734 C 19.200891 41.066734 21.030828 42.258766 23.548828 42.259766 C 27.444828 42.232766 29.537109 40.245516 29.537109 35.978516 C 29.537109 33.567516 28.399578 32.161844 26.517578 31.339844 C 27.630578 30.756844 28.478516 29.457641 28.478516 27.681641 C 28.478516 24.394641 26.622828 22.699219 23.548828 22.699219 z M 39.130859 22.699219 C 34.518859 22.699219 32.080078 26.277125 32.080078 32.453125 C 32.080078 38.708125 34.729594 42.258766 39.183594 42.259766 C 43.874594 42.259766 46.181641 38.682125 46.181641 32.453125 C 46.181641 26.277125 43.821859 22.699219 39.130859 22.699219 z M 39.130859 26.064453 C 41.861859 26.064453 42.841797 28.185125 42.841797 32.453125 C 42.841797 36.774125 41.568859 38.841797 39.130859 38.841797 C 36.718859 38.841797 35.445312 36.773125 35.445312 32.453125 C 35.445312 28.185125 36.612859 26.064453 39.130859 26.064453 z"></path></svg>