<svg fill-rule="nonzero" height="60px" width="60px" viewBox="0,0,256,256" xmlns:xlink="http://www.w3.org/1999/xlink" xmlns="http://www.w3.org/2000/svg"><g style="mix-blend-mode: normal" text-anchor="none" font-size="none" font-weight="none" font-family="none" stroke-dashoffset="0" stroke-dasharray="" stroke-miterlimit="10" stroke-linejoin="none" stroke-linecap="butt" stroke-width="1" stroke="none" fill-rule="nonzero" fill="#000000"><path stroke-linejoin="round" stroke="#000000" id="strokeMainSVG" d="M42.21875,1c0.465,0.105 0.79325,0.523 0.78125,1v10h-10c-0.359,0.004 -0.69491,-0.18409 -0.87891,-0.49609c-0.18,-0.313 -0.18,-0.69581 0,-1.00781c0.184,-0.312 0.51991,-0.50009 0.87891,-0.49609h6.65625c-3.761,-3.695 -8.92625,-6 -14.65625,-6c-11.664,0 -21,9.336 -21,21c0,11.664 9.336,21 21,21c11.664,0 21,-9.336 21,-21c0,-3.434 -0.84825,-6.79325 -2.28125,-9.65625l1.78125,-0.90625c1.566,3.136 2.5,6.7965 2.5,10.5625c0,12.734 -10.266,23 -23,23c-12.734,0 -23,-10.266 -23,-23c0,-12.734 10.266,-23 23,-23c6.223,0 11.883,2.496 16,6.5v-6.5c-0.012,-0.289 0.1055,-0.56572 0.3125,-0.76172c0.211,-0.199 0.49625,-0.29753 0.78125,-0.26953c0.043,0.008 0.086,0.01925 0.125,0.03125zM26,10v14.28125c0.598,0.348 1,0.98075 1,1.71875c0,1.105 -0.895,2 -2,2c-0.172,0 -0.34,-0.0205 -0.5,-0.0625l-6.78125,6.78125l-1.4375,-1.4375l6.78125,-6.78125c-0.042,-0.16 -0.0625,-0.328 -0.0625,-0.5c0,-0.739 0.402,-1.37075 1,-1.71875v-14.28125z" transform="scale(5.12,5.12)"></path><g stroke-linejoin="miter" stroke="none" transform="scale(5.12,5.12)"><path d="M42.09375,0.96875c-0.285,-0.028 -0.57025,0.07053 -0.78125,0.26953c-0.207,0.196 -0.3245,0.47272 -0.3125,0.76172v6.5c-4.117,-4.004 -9.777,-6.5 -16,-6.5c-12.734,0 -23,10.266 -23,23c0,12.734 10.266,23 23,23c12.734,0 23,-10.266 23,-23c0,-3.766 -0.934,-7.4265 -2.5,-10.5625l-1.78125,0.90625c1.433,2.863 2.28125,6.22225 2.28125,9.65625c0,11.664 -9.336,21 -21,21c-11.664,0 -21,-9.336 -21,-21c0,-11.664 9.336,-21 21,-21c5.73,0 10.89525,2.305 14.65625,6h-6.65625c-0.359,-0.004 -0.69491,0.18409 -0.87891,0.49609c-0.18,0.312 -0.18,0.69481 0,1.00781c0.184,0.312 0.51991,0.50009 0.87891,0.49609h10v-10c0.012,-0.477 -0.31625,-0.895 -0.78125,-1c-0.039,-0.012 -0.082,-0.02325 -0.125,-0.03125zM24,10v14.28125c-0.598,0.348 -1,0.97975 -1,1.71875c0,0.172 0.0205,0.34 0.0625,0.5l-6.78125,6.78125l1.4375,1.4375l6.78125,-6.78125c0.16,0.042 0.328,0.0625 0.5,0.0625c1.105,0 2,-0.895 2,-2c0,-0.738 -0.402,-1.37075 -1,-1.71875v-14.28125z"></path></g></g></svg>