<svg height="100px" width="100px" viewBox="0 0 64 64" xmlns="http://www.w3.org/2000/svg"><path d="M 19.970703 13 C 18.120703 13 16.343531 13.875484 15.269531 15.271484 L 6.4707031 25.710938 C 5.8217031 26.481938 5.8452969 27.614469 6.5292969 28.355469 L 30.529297 54.355469 C 30.629723 54.464374 30.743714 54.559692 30.863281 54.642578 C 30.873948 54.649973 30.885675 54.654923 30.896484 54.662109 C 31.032979 54.752855 31.180023 54.820341 31.333984 54.875 C 31.37831 54.890788 31.421247 54.905301 31.466797 54.917969 C 31.63968 54.966035 31.816895 55 32 55 C 32.183105 55 32.360355 54.966 32.533203 54.917969 C 32.578753 54.905301 32.62169 54.890788 32.666016 54.875 C 32.819927 54.820392 32.967172 54.752703 33.103516 54.662109 C 33.114325 54.654923 33.126052 54.649973 33.136719 54.642578 C 33.256143 54.559835 33.368589 54.466063 33.46875 54.357422 L 57.46875 28.357422 C 58.15275 27.616422 58.178297 26.481938 57.529297 25.710938 L 48.785156 15.341797 C 47.656156 13.875797 45.879297 13 44.029297 13 L 19.970703 13 z M 19.970703 17 L 27.732422 17 L 21.066406 25 L 12.300781 25 L 18.384766 17.78125 C 18.766766 17.28525 19.344703 17 19.970703 17 z M 36.267578 17 L 44.029297 17 C 44.655297 17 45.233875 17.284609 45.671875 17.849609 L 51.699219 25 L 42.933594 25 L 36.267578 17 z M 32 18.123047 L 37.730469 25 L 26.269531 25 L 32 18.123047 z M 12.568359 29 L 20.626953 29 L 26.384766 43.966797 L 12.568359 29 z M 24.910156 29 L 39.089844 29 L 32 47.429688 L 24.910156 29 z M 43.373047 29 L 51.431641 29 L 37.615234 43.966797 L 43.373047 29 z"></path></svg>