<svg xmlns="http://www.w3.org/2000/svg" fill="none" viewBox="0 0 24 24" height="24" width="24">
<path fill="#76A34F" d="M16.675 17.3956C15.3021 19.8095 13.4473 21.5192 12.491 22.3051C12.2584 22.4961 11.9138 22.3001 11.9591 22.0025C12.1457 20.7789 12.667 18.3108 14.0398 15.8969C15.4127 13.4829 17.2675 11.7732 18.2238 10.9874C18.4564 10.7963 18.801 10.9923 18.7556 11.2899C18.5691 12.5134 18.0478 14.9815 16.675 17.3956Z"></path>
<path fill="#648940" d="M18.2238 10.9874C18.0438 11.1354 17.8319 11.3161 17.5975 11.528C17.3052 12.8481 16.7558 14.6677 15.7375 16.4581C14.623 18.4177 13.191 19.9131 12.1799 20.827C12.0781 21.2869 12.0073 21.6865 11.9591 22.0027C11.9138 22.3002 12.2585 22.4963 12.491 22.3052C13.4473 21.5194 15.302 19.8097 16.675 17.3957C18.0478 14.9817 18.5692 12.5137 18.7556 11.29C18.801 10.9923 18.4563 10.7963 18.2238 10.9874Z"></path>
<path fill="#5A7A39" d="M18.2653 10.9583C18.0616 12.2226 17.5298 14.5996 16.2062 16.9268C14.8333 19.3408 12.9786 21.0505 12.0222 21.8363C12.0087 21.8474 11.9949 21.8568 11.9807 21.8654C11.9731 21.9125 11.9658 21.9585 11.9591 22.0025C11.9138 22.3001 12.2585 22.4961 12.491 22.305C13.4473 21.5192 15.302 19.8095 16.675 17.3955C18.0478 14.9816 18.5692 12.5135 18.7556 11.2899C18.7984 11.0096 18.4951 10.8196 18.2653 10.9583Z"></path>
<path fill="#76A34F" d="M7.32596 17.3956C8.69884 19.8095 10.5536 21.5192 11.5099 22.3051C11.7425 22.4961 12.0871 22.3001 12.0418 22.0025C11.8552 20.7789 11.334 18.3108 9.96109 15.8969C8.58821 13.4829 6.73346 11.7732 5.77712 10.9874C5.54453 10.7963 5.1999 10.9923 5.24528 11.2899C5.43184 12.5134 5.95309 14.9815 7.32596 17.3956Z"></path>
<path fill="#91B56B" d="M9.70665 19.9518C9.65227 19.9518 9.60071 19.9283 9.56509 19.888C9.53227 19.8496 9.51634 19.8018 9.51915 19.7511C9.5229 19.7015 9.5454 19.6565 9.58384 19.6236C9.6579 19.558 9.78165 19.5665 9.84727 19.6405C9.84727 19.6415 9.84821 19.6415 9.84821 19.6415C9.91571 19.7193 9.90727 19.8383 9.82946 19.9058C9.79571 19.9358 9.75165 19.9518 9.70665 19.9518ZM9.22665 19.3761C9.16853 19.3761 9.11509 19.3508 9.07946 19.3058C8.53759 18.6271 8.05665 17.9221 7.65259 17.2105C6.52759 15.2315 5.98478 13.2177 5.72696 11.8771C5.71196 11.7983 5.74852 11.7186 5.81884 11.6793C5.88727 11.6399 5.97728 11.6493 6.0354 11.7018C6.3054 11.9408 6.57352 12.193 6.83321 12.4536C6.86884 12.4883 6.88853 12.5361 6.88853 12.5858C6.88853 12.6355 6.86884 12.6833 6.83321 12.718C6.7629 12.7893 6.63915 12.7893 6.56884 12.718C6.45259 12.6027 6.33352 12.4865 6.21352 12.373C6.4779 13.5477 6.99821 15.3018 7.9779 17.0249C8.37352 17.7196 8.84228 18.4086 9.3729 19.0715C9.40384 19.1108 9.4179 19.1596 9.41227 19.2093C9.40665 19.2599 9.38228 19.304 9.3429 19.3349C9.30915 19.3621 9.26884 19.3761 9.22665 19.3761Z"></path>
<path fill="#648940" d="M12.042 22.0026C11.8555 20.779 11.3342 18.3109 9.96136 15.897C8.92655 14.0775 7.61827 12.6584 6.62695 11.7332C7.42345 12.5864 8.29205 13.6728 9.02386 14.9595C10.3967 17.3734 10.9181 19.8415 11.1045 21.0651C11.1499 21.3627 10.8052 21.5587 10.5727 21.3677C10.3372 21.1742 10.047 20.9243 9.72314 20.622C10.421 21.3695 11.0636 21.9381 11.5102 22.3052C11.7428 22.4962 12.0874 22.3002 12.042 22.0026Z"></path>
<path fill="#648940" d="M11.9932 22.9062C11.7343 22.9062 11.5244 22.6963 11.5244 22.4375V5.75806C11.5244 5.49921 11.7343 5.28931 11.9932 5.28931C12.252 5.28931 12.4619 5.49921 12.4619 5.75806V22.4375C12.4619 22.6963 12.252 22.9062 11.9932 22.9062Z"></path>
<path fill="#A54AF4" d="M12.0002 9.51655C13.0769 9.51655 13.9497 8.64376 13.9497 7.56711C13.9497 6.49047 13.0769 5.61768 12.0002 5.61768C10.9236 5.61768 10.0508 6.49047 10.0508 7.56711C10.0508 8.64376 10.9236 9.51655 12.0002 9.51655Z"></path>
<path fill="#A54AF4" d="M12.0002 13.0012C13.0769 13.0012 13.9497 12.1284 13.9497 11.0517C13.9497 9.97509 13.0769 9.10229 12.0002 9.10229C10.9236 9.10229 10.0508 9.97509 10.0508 11.0517C10.0508 12.1284 10.9236 13.0012 12.0002 13.0012Z"></path>
<path fill="#A54AF4" d="M13.8733 11.2582C14.9499 11.2582 15.8227 10.3855 15.8227 9.30881C15.8227 8.23217 14.9499 7.35938 13.8733 7.35938C12.7966 7.35938 11.9238 8.23217 11.9238 9.30881C11.9238 10.3855 12.7966 11.2582 13.8733 11.2582Z"></path>
<path fill="#A54AF4" d="M10.1272 11.2582C11.2038 11.2582 12.0766 10.3855 12.0766 9.30881C12.0766 8.23217 11.2038 7.35938 10.1272 7.35938C9.05053 7.35938 8.17773 8.23217 8.17773 9.30881C8.17773 10.3855 9.05053 11.2582 10.1272 11.2582Z"></path>
<path fill="#A54AF4" d="M13.5497 8.45532C14.4406 8.45532 15.1628 7.73308 15.1628 6.84216C15.1628 5.95124 14.4406 5.229 13.5497 5.229C12.6588 5.229 11.9365 5.95124 11.9365 6.84216C11.9365 7.73308 12.6588 8.45532 13.5497 8.45532Z"></path>
<path fill="#A54AF4" d="M10.4501 8.45532C11.341 8.45532 12.0632 7.73308 12.0632 6.84216C12.0632 5.95124 11.341 5.229 10.4501 5.229C9.55915 5.229 8.83691 5.95124 8.83691 6.84216C8.83691 7.73308 9.55915 8.45532 10.4501 8.45532Z"></path>
<path fill="#A54AF4" d="M13.5497 13.3884C14.4406 13.3884 15.1628 12.6662 15.1628 11.7753C15.1628 10.8843 14.4406 10.1621 13.5497 10.1621C12.6588 10.1621 11.9365 10.8843 11.9365 11.7753C11.9365 12.6662 12.6588 13.3884 13.5497 13.3884Z"></path>
<path fill="#A54AF4" d="M10.4501 13.3884C11.341 13.3884 12.0632 12.6662 12.0632 11.7753C12.0632 10.8843 11.341 10.1621 10.4501 10.1621C9.55915 10.1621 8.83691 10.8843 8.83691 11.7753C8.83691 12.6662 9.55915 13.3884 10.4501 13.3884Z"></path>
<path fill="#A54AF4" d="M11.0768 5.91095C11.8204 5.91095 12.4232 5.30817 12.4232 4.56461C12.4232 3.82104 11.8204 3.21826 11.0768 3.21826C10.3332 3.21826 9.73047 3.82104 9.73047 4.56461C9.73047 5.30817 10.3332 5.91095 11.0768 5.91095Z"></path>
<path fill="#A54AF4" d="M13.0768 5.91095C13.8204 5.91095 14.4232 5.30817 14.4232 4.56461C14.4232 3.82104 13.8204 3.21826 13.0768 3.21826C12.3332 3.21826 11.7305 3.82104 11.7305 4.56461C11.7305 5.30817 12.3332 5.91095 13.0768 5.91095Z"></path>
<path fill="#A54AF4" d="M12.0006 7.42584C12.7442 7.42584 13.347 6.82306 13.347 6.0795C13.347 5.33593 12.7442 4.73315 12.0006 4.73315C11.2571 4.73315 10.6543 5.33593 10.6543 6.0795C10.6543 6.82306 11.2571 7.42584 12.0006 7.42584Z"></path>
<path fill="#A54AF4" d="M12.0006 4.10284C12.7442 4.10284 13.347 3.50007 13.347 2.7565C13.347 2.01293 12.7442 1.41016 12.0006 1.41016C11.2571 1.41016 10.6543 2.01293 10.6543 2.7565C10.6543 3.50007 11.2571 4.10284 12.0006 4.10284Z"></path>
</svg>
