<svg width="906" height="380" viewBox="0 0 906 380" fill="none" xmlns="http://www.w3.org/2000/svg">
<path d="M633.664 350.156V338.633L667.609 285H677.219V301.406H671.359L648.508 337.617V338.242H695.891V350.156H633.664ZM671.828 365V346.641L671.984 341.484V285H685.656V365H671.828ZM714.983 365.859C712.613 365.859 710.582 365.026 708.889 363.359C707.196 361.693 706.363 359.661 706.389 357.266C706.363 354.922 707.196 352.917 708.889 351.25C710.582 349.583 712.613 348.75 714.983 348.75C717.274 348.75 719.266 349.583 720.959 351.25C722.678 352.917 723.55 354.922 723.576 357.266C723.55 358.854 723.134 360.299 722.326 361.602C721.545 362.904 720.503 363.945 719.201 364.727C717.925 365.482 716.519 365.859 714.983 365.859ZM738.371 365L772.395 297.656V297.109H732.902V285H787.395V297.383L753.41 365H738.371ZM832.815 281.25L807.033 377.031H794.651L820.432 281.25H832.815ZM869.494 366.094C864.286 366.094 859.624 365.117 855.51 363.164C851.395 361.185 848.127 358.477 845.705 355.039C843.309 351.602 842.033 347.669 841.877 343.242H855.94C856.2 346.523 857.619 349.206 860.197 351.289C862.776 353.346 865.874 354.375 869.494 354.375C872.333 354.375 874.859 353.724 877.072 352.422C879.286 351.12 881.031 349.31 882.307 346.992C883.583 344.674 884.208 342.031 884.182 339.062C884.208 336.042 883.57 333.359 882.268 331.016C880.966 328.672 879.182 326.836 876.916 325.508C874.651 324.154 872.046 323.477 869.104 323.477C866.708 323.451 864.351 323.893 862.033 324.805C859.716 325.716 857.88 326.914 856.526 328.398L843.44 326.25L847.619 285H894.026V297.109H859.611L857.307 318.32H857.776C859.26 316.576 861.356 315.13 864.065 313.984C866.773 312.812 869.742 312.227 872.971 312.227C877.815 312.227 882.137 313.372 885.94 315.664C889.742 317.93 892.736 321.055 894.924 325.039C897.111 329.023 898.205 333.581 898.205 338.711C898.205 343.997 896.981 348.711 894.533 352.852C892.111 356.966 888.739 360.208 884.416 362.578C880.119 364.922 875.145 366.094 869.494 366.094Z" fill="white"/>
<g clip-path="url(#clip0_121_2)">
<path d="M237.945 78.8088H329.622V95.9134H293.575V192.067H273.753V95.9134H237.865V78.8088H237.945ZM325.706 110.061H342.65V125.886H342.97C343.53 123.648 344.569 121.49 346.087 119.412C347.606 117.334 349.444 115.336 351.602 113.657C353.76 111.899 356.158 110.54 358.796 109.421C361.434 108.382 364.151 107.823 366.869 107.823C368.947 107.823 370.465 107.903 371.265 107.983C372.064 108.062 372.863 108.222 373.742 108.302V125.727C372.464 125.487 371.185 125.327 369.826 125.167C368.467 125.007 367.188 124.927 365.909 124.927C362.872 124.927 359.995 125.567 357.277 126.766C354.56 127.965 352.242 129.803 350.244 132.121C348.245 134.519 346.647 137.396 345.448 140.913C344.249 144.43 343.69 148.426 343.69 152.982V191.987H325.626V110.061H325.706ZM456.788 192.067H439.044V180.637H438.724C436.486 184.793 433.209 188.07 428.813 190.548C424.417 193.026 419.941 194.305 415.385 194.305C404.595 194.305 396.762 191.667 391.966 186.312C387.17 180.957 384.772 172.884 384.772 162.094V110.061H402.836V160.335C402.836 167.529 404.195 172.644 406.992 175.602C409.71 178.559 413.626 180.077 418.582 180.077C422.419 180.077 425.536 179.518 428.093 178.319C430.651 177.12 432.729 175.602 434.248 173.603C435.846 171.685 436.965 169.287 437.685 166.57C438.404 163.852 438.724 160.895 438.724 157.698V110.141H456.788V192.067ZM487.56 165.77C488.119 171.046 490.117 174.722 493.554 176.88C497.071 178.959 501.227 180.077 506.103 180.077C507.782 180.077 509.7 179.918 511.858 179.678C514.016 179.438 516.094 178.879 517.932 178.159C519.851 177.44 521.369 176.321 522.648 174.882C523.847 173.443 524.407 171.605 524.327 169.287C524.247 166.969 523.367 165.051 521.769 163.612C520.17 162.094 518.172 160.975 515.694 160.016C513.217 159.136 510.419 158.337 507.222 157.698C504.025 157.058 500.828 156.339 497.551 155.62C494.194 154.9 490.917 153.941 487.8 152.902C484.682 151.863 481.885 150.424 479.407 148.586C476.929 146.827 474.931 144.51 473.492 141.712C471.974 138.915 471.254 135.478 471.254 131.321C471.254 126.846 472.373 123.169 474.532 120.132C476.69 117.094 479.487 114.696 482.764 112.858C486.121 111.02 489.798 109.741 493.874 108.942C497.95 108.222 501.867 107.823 505.544 107.823C509.78 107.823 513.856 108.302 517.693 109.181C521.529 110.061 525.046 111.499 528.163 113.577C531.28 115.576 533.838 118.213 535.916 121.41C537.994 124.608 539.273 128.524 539.833 133.08H520.97C520.09 128.764 518.172 125.806 515.055 124.368C511.938 122.849 508.341 122.13 504.345 122.13C503.066 122.13 501.547 122.21 499.789 122.449C498.03 122.689 496.432 123.089 494.833 123.648C493.315 124.208 492.036 125.087 490.917 126.206C489.878 127.325 489.318 128.764 489.318 130.602C489.318 132.84 490.117 134.599 491.636 135.957C493.155 137.316 495.153 138.435 497.631 139.394C500.108 140.273 502.906 141.073 506.103 141.712C509.3 142.352 512.577 143.071 515.934 143.79C519.211 144.51 522.408 145.469 525.605 146.508C528.803 147.547 531.6 148.986 534.078 150.824C536.556 152.662 538.554 154.9 540.072 157.618C541.591 160.335 542.39 163.772 542.39 167.769C542.39 172.644 541.271 176.721 539.033 180.157C536.795 183.514 533.918 186.312 530.401 188.39C526.884 190.468 522.888 192.067 518.572 193.026C514.256 193.985 509.94 194.465 505.703 194.465C500.508 194.465 495.712 193.905 491.316 192.706C486.92 191.507 483.084 189.749 479.887 187.431C476.69 185.033 474.132 182.076 472.294 178.559C470.455 175.042 469.496 170.806 469.336 165.93H487.56V165.77ZM547.186 110.061H560.854V85.4429H578.917V110.061H595.223V123.568H578.917V167.369C578.917 169.287 578.997 170.886 579.157 172.324C579.317 173.683 579.717 174.882 580.276 175.841C580.836 176.8 581.715 177.52 582.914 177.999C584.113 178.479 585.631 178.719 587.709 178.719C588.988 178.719 590.267 178.719 591.546 178.639C592.825 178.559 594.104 178.399 595.383 178.079V192.067C593.384 192.306 591.386 192.466 589.548 192.706C587.629 192.946 585.711 193.026 583.713 193.026C578.917 193.026 575.081 192.546 572.203 191.667C569.326 190.788 567.008 189.429 565.41 187.671C563.731 185.912 562.692 183.754 562.053 181.117C561.493 178.479 561.093 175.442 561.014 172.085V123.728H547.346V110.061H547.186ZM608.011 110.061H625.116V121.171H625.435C627.993 116.375 631.51 113.018 636.066 110.94C640.622 108.862 645.497 107.823 650.852 107.823C657.327 107.823 662.922 108.942 667.717 111.26C672.513 113.498 676.509 116.615 679.706 120.611C682.904 124.608 685.221 129.243 686.82 134.519C688.419 139.794 689.218 145.469 689.218 151.463C689.218 156.978 688.499 162.333 687.06 167.449C685.621 172.644 683.463 177.2 680.586 181.196C677.708 185.193 674.032 188.31 669.556 190.708C665.08 193.106 659.884 194.305 653.81 194.305C651.172 194.305 648.535 194.065 645.897 193.585C643.259 193.106 640.702 192.306 638.304 191.267C635.906 190.228 633.588 188.87 631.59 187.191C629.512 185.513 627.833 183.594 626.395 181.436H626.075V222.359H608.011V110.061ZM671.154 151.144C671.154 147.467 670.675 143.87 669.715 140.353C668.756 136.837 667.318 133.799 665.399 131.082C663.481 128.364 661.083 126.206 658.286 124.608C655.408 123.009 652.131 122.13 648.455 122.13C640.861 122.13 635.107 124.767 631.27 130.043C627.434 135.318 625.515 142.352 625.515 151.144C625.515 155.3 625.995 159.136 627.034 162.653C628.073 166.17 629.512 169.207 631.59 171.765C633.588 174.323 635.986 176.321 638.783 177.76C641.581 179.278 644.858 179.998 648.535 179.998C652.691 179.998 656.128 179.118 659.005 177.44C661.883 175.761 664.2 173.523 666.039 170.886C667.877 168.168 669.236 165.131 670.035 161.694C670.754 158.257 671.154 154.74 671.154 151.144ZM703.045 78.8088H721.109V95.9134H703.045V78.8088ZM703.045 110.061H721.109V192.067H703.045V110.061ZM737.255 78.8088H755.318V192.067H737.255V78.8088ZM810.708 194.305C804.154 194.305 798.319 193.186 793.204 191.028C788.089 188.87 783.773 185.832 780.176 182.076C776.659 178.239 773.941 173.683 772.103 168.408C770.265 163.133 769.306 157.298 769.306 150.984C769.306 144.749 770.265 138.995 772.103 133.719C773.941 128.444 776.659 123.888 780.176 120.052C783.693 116.215 788.089 113.258 793.204 111.1C798.319 108.942 804.154 107.823 810.708 107.823C817.262 107.823 823.097 108.942 828.212 111.1C833.328 113.258 837.644 116.295 841.241 120.052C844.758 123.888 847.475 128.444 849.313 133.719C851.152 138.995 852.111 144.749 852.111 150.984C852.111 157.298 851.152 163.133 849.313 168.408C847.475 173.683 844.758 178.239 841.241 182.076C837.724 185.912 833.328 188.87 828.212 191.028C823.097 193.186 817.262 194.305 810.708 194.305ZM810.708 179.998C814.705 179.998 818.222 179.118 821.179 177.44C824.136 175.761 826.534 173.523 828.452 170.806C830.371 168.088 831.729 164.971 832.688 161.534C833.568 158.097 834.047 154.58 834.047 150.984C834.047 147.467 833.568 144.03 832.688 140.513C831.809 136.996 830.371 133.959 828.452 131.242C826.534 128.524 824.136 126.366 821.179 124.687C818.222 123.009 814.705 122.13 810.708 122.13C806.712 122.13 803.195 123.009 800.238 124.687C797.28 126.366 794.883 128.604 792.964 131.242C791.046 133.959 789.687 136.996 788.728 140.513C787.849 144.03 787.369 147.467 787.369 150.984C787.369 154.58 787.849 158.097 788.728 161.534C789.607 164.971 791.046 168.088 792.964 170.806C794.883 173.523 797.28 175.761 800.238 177.44C803.195 179.198 806.712 179.998 810.708 179.998ZM857.386 110.061H871.054V85.4429H889.118V110.061H905.423V123.568H889.118V167.369C889.118 169.287 889.197 170.886 889.357 172.324C889.517 173.683 889.917 174.882 890.476 175.841C891.036 176.8 891.915 177.52 893.114 177.999C894.313 178.479 895.832 178.719 897.91 178.719C899.189 178.719 900.467 178.719 901.746 178.639C903.025 178.559 904.304 178.399 905.583 178.079V192.067C903.585 192.306 901.586 192.466 899.748 192.706C897.83 192.946 895.911 193.026 893.913 193.026C889.118 193.026 885.281 192.546 882.404 191.667C879.526 190.788 877.208 189.429 875.61 187.671C873.931 185.912 872.892 183.754 872.253 181.117C871.693 178.479 871.294 175.442 871.214 172.085V123.728H857.546V110.061H857.386Z" fill="white"/>
<path d="M216.844 78.8089H134.039L108.462 0L82.8053 78.8089L0 78.729L67.0595 127.485L41.4027 206.214L108.462 157.538L175.442 206.214L149.865 127.485L216.844 78.8089Z" fill="#00B67A"/>
<path d="M155.62 145.309L149.866 127.485L108.463 157.538L155.62 145.309Z" fill="#005128"/>
</g>
<g clip-path="url(#clip1_121_2)">
<path d="M105.016 270H-12.7343V378.76H105.016V270Z" fill="#00B67A"/>
<path d="M232.578 270H114.828V378.76H232.578V270Z" fill="#00B67A"/>
<path d="M360.141 270H242.391V378.76H360.141V270Z" fill="#00B67A"/>
<path d="M487.703 270H369.953V378.76H487.703V270Z" fill="#00B67A"/>
<path d="M615.266 270H556.391V378.76H615.266V270Z" fill="#DCDCE6"/>
<path d="M587.998 270H497.675V378.76H587.998V270Z" fill="#00B67A"/>
<path d="M46.1407 343.3L64.0485 339.108L71.5306 360.407L46.1407 343.3ZM87.3532 315.77H55.8306L46.1407 288.353L36.4509 315.77H4.92822L30.4407 332.764L20.7509 360.18L46.2634 343.186L61.9634 332.764L87.3532 315.77Z" fill="white"/>
<path d="M173.703 343.3L191.611 339.108L199.093 360.407L173.703 343.3ZM214.916 315.77H183.393L173.703 288.353L164.013 315.77H132.491L158.003 332.764L148.313 360.18L173.826 343.186L189.526 332.764L214.916 315.77Z" fill="white"/>
<path d="M301.266 343.3L319.173 339.108L326.655 360.407L301.266 343.3ZM342.478 315.77H310.955L301.266 288.353L291.576 315.77H260.053L285.566 332.764L275.876 360.18L301.388 343.186L317.088 332.764L342.478 315.77Z" fill="white"/>
<path d="M428.828 343.3L446.736 339.108L454.218 360.407L428.828 343.3ZM470.041 315.77H438.518L428.828 288.353L419.138 315.77H387.616L413.128 332.764L403.438 360.18L428.951 343.186L444.651 332.764L470.041 315.77Z" fill="white"/>
<path d="M556.391 343.3L574.299 339.108L581.781 360.407L556.391 343.3ZM597.603 315.77H566.081L556.391 288.353L546.701 315.77H515.178L540.691 332.764L531.001 360.18L556.514 343.186L572.213 332.764L597.603 315.77Z" fill="white"/>
</g>
<defs>
<clipPath id="clip0_121_2">
<rect width="905.423" height="222.359" fill="white"/>
</clipPath>
<clipPath id="clip1_121_2">
<rect width="628" height="108.76" fill="white" transform="translate(0.00012207 270)"/>
</clipPath>
</defs>
</svg>
